<svg xmlns="http://www.w3.org/2000/svg" viewBox="0 0 390 200.3" xmlns:v="https://vecta.io/nano"><ellipse cx="233.3" cy="172.6" rx="156.7" ry="6.4" opacity=".17" enable-background="new"/><g fill="#9c9dad"><path d="M88.2,162.1v4.7c0,1.3,8,4.6,14.8,4.6h269.1c6.8,0,14.8-3.3,14.8-4.6v-4.7H88.2z"/><path d="M350.9 0H124.1c-4.2-.2-7.8 3.1-7.9 7.4v.3 150.4c0 .5.3 4.1.6 4.1h241.4c.4 0 .6-3.7.6-4.1V7.6c0-4.2-3.5-7.6-7.7-7.6h-.2z"/></g><path d="M123.7 8.7h227.6v142.1H123.7z" fill="#dfe9f2"/><g opacity=".196"><path d="M175.21 14.74h124.8c5.2 0 9.5 4.2 9.5 9.4v117.2c0 5.2-4.2 9.5-9.5 9.5h-124.8c-5.2 0-9.5-4.2-9.5-9.5V24.24a9.43 9.43 0 0 1 9.5-9.5z" fill="#fff"/><path d="M174.81 44.24h125.5v57.6h-125.5z" fill="#acb3b7"/><path d="M255.11 101.74l19.2-24.4 19.2 24.4h-38.4z" fill="#bdcbe0"/><path d="M203.81 101.74l38.2-48.5 38.2 48.5h-76.4z" fill="#ffc8bd"/><path d="M180.81 101.74l26.2-33.3 26.2 33.3h-52.4z" fill="#d1eaf2"/><circle cx="283.81" cy="58.64" r="6.1" fill="#ffe8a6"/><path d="M221.81 60.64h31.5c5.4 0 9.7 4.3 9.7 9.7v14.6c0 5.4-4.3 9.7-9.7 9.7h-31.5c-5.4 0-9.7-4.3-9.7-9.7v-14.6c0-5.4 4.3-9.7 9.7-9.7z" fill="#fff"/><path d="M309.41 25.34h-143.7v-6a4.48 4.48 0 0 1 4.5-4.5h0 134.6a4.48 4.48 0 0 1 4.5 4.5h0v6h.1z" fill="#6784a8"/><g fill="#aabdd1"><circle cx="174.01" cy="20.14" r="2.3"/><circle cx="181.61" cy="20.14" r="2.3"/><circle cx="189.11" cy="20.14" r="2.3"/></g><path d="M220.01 33.34h8.8v1.5h-8.8zm14.8 0h8.8v1.5h-8.8zm14.8 0h8.8v1.5h-8.8zm14.8 0h8.8v1.5h-8.8zm14.9 0h8.8v1.5h-8.8zm-104.5-1.9h7.6v1.1h-7.6zm0 2.7h7.6v1.1h-7.6zm0 2.7h7.6v1.1h-7.6z" fill="#acb3b7"/><path d="M225.21 64.74h24.6v3h-24.6z" fill="#545f75"/><path d="M219.11 70.84h36.9v1.5h-36.9zm4 4.5h28.8v1.5h-28.8zm-2 4.6h32.8v1.5h-32.8z" fill="#e1e6ea"/><path d="M228.71 84.34h17.8c1.4 0 2.5 1.1 2.5 2.5v1c0 1.4-1.1 2.5-2.5 2.5h-17.8c-1.4 0-2.5-1.1-2.5-2.5v-1c-.1-1.3 1.1-2.5 2.5-2.5z" fill="#ff8c71"/><path d="M225.11 133.04h24.9v1.5h-24.9z" fill="#e1e6ea"/><circle cx="237.51" cy="121.44" r="9.1" fill="#545f75"/><path d="M261.71 133.04h24.9v1.5h-24.9z" fill="#e1e6ea"/><circle cx="274.11" cy="121.44" r="9.1" fill="#ff8c71"/><path d="M188.51 133.04h24.9v1.5h-24.9zm36.6 7.5h24.9v1.5h-24.9zm36.6 0h24.9v1.5h-24.9zm-73.2 0h24.9v1.5h-24.9zm39.7-3.8h18.7v1.5h-18.7zm36.6 0h18.7v1.5h-18.7zm-73.2 0h18.7v1.5h-18.7z" fill="#e1e6ea"/><circle cx="200.91" cy="121.44" r="9.1" fill="#bfdce8"/><path d="M195.91 38.14l7.3-9.3 7.3 9.3h-14.6z" fill="#545f75"/><path d="M191.51 38.14l5-6.4 5 6.4h-10z" fill="#bfdce8"/></g><path d="M238.6 62.6c12.7 0 24.3 7.2 29.8 18.6-2 4-4.7 7.6-8.1 10.5l4.8 4.8c4.7-4.2 8.4-9.4 10.7-15.3-7.7-19.7-29.4-29.9-49.5-23.5l5.6 5.6c2.2-.5 4.5-.7 6.7-.7zm-3.6 3.8l7 7c1.9.9 3.5 2.4 4.3 4.3l7 7c.3-1.2.5-2.4.5-3.6 0-8.4-6.8-15.2-15.1-15.2h0c-1.3.1-2.5.2-3.7.5h0zm-30.1-11l9.1 9.1c-5.6 4.4-9.9 10.1-12.5 16.7 6 15.3 20.7 25.3 37.2 25.3 5 0 9.9-.9 14.6-2.8l11.5 11.6 4.8-4.8-59.9-59.9-4.8 4.8zm25.3 25.3l8.8 8.8c-.1 0-.3.1-.4.1-4.7 0-8.4-3.8-8.4-8.4v-.5zm-11.5-11.5l5.9 5.9c-.8 1.9-1.2 3.9-1.2 6 0 8.4 6.8 15.2 15.2 15.2 2 0 4.1-.4 5.9-1.2l3.3 3.3c-3 .8-6.1 1.3-9.3 1.3-12.7 0-24.3-7.2-29.8-18.6 2.5-4.6 5.9-8.7 10-11.9h0z" fill="#9c9dad"/><path d="M17.8 156.4l13 .2c20.4.6 36.9 2.2 49.2 1.4 6.7-.4 12.1-1.6 16.1-4 16.5-12.4 3.4-54 3.4-72-.1-22.8-16.2-42.5-38.6-47-3.3-.7-6.6-1-9.9-1h-2.7a48.35 48.35 0 0 0-27.1 10C9.4 53 2.4 67 2.4 81.9c0 26.3-11.3 74.3 15.4 74.5" fill="#fc0"/><path d="M40.2 59.8c9.9 0 18 11.2 18 24.9s-8.1 24.9-18 24.9-18-11.2-18-24.9 8.1-24.9 18-24.9m41.7 2c7.8 0 14.2 8.8 14.2 19.8s-6.3 19.7-14.2 19.7-14.2-8.8-14.2-19.8 6.4-19.7 14.2-19.7" fill-rule="evenodd" fill="#1e1f2e"/><path d="M56.1,184c-24.6,0-44.4,3.6-44.4,8.2s19.9,8.2,44.4,8.2s44.4-3.6,44.4-8.2S80.7,184,56.1,184" opacity=".17" enable-background="new"/><path d="M48.2 33.9h.1c2.1 1.2 26.5 4.4 35.4 21.6 1.3 2.5 2.4 5 3.3 7.6 5.3 2.9 9.1 10 9.1 18.4 0 3.7-.7 7.4-2.3 10.7 1.7 11.9 2.3 24 1.7 36.1-1.9 20.1-12.9 25.9-15.5 29.5 6.7-.4 12.1-1.6 16.1-4 16.4-12.3 3.3-53.9 3.3-72-.1-22.8-16.2-42.5-38.6-47l-12.1-1-.5.1z" opacity=".3" fill="#fff"/><path d="M4.6 81.8l.1-2.3c-.7-.7-1.1-1.7-1.2-2.8.1-1.2.7-2.2 1.8-2.8 1.6-9.9 6.3-19 13.5-26.1-4.9 8.9-6.5 19-7.5 22l-.5 1.9c8.9-2.2 23.9-2.1 30.3-1.3C53.4 72 56.8 74.2 59 75.7c2.6 1.6 5.8 1.6 8.4-.1 4.3-3.1 9.4-5.1 14.7-5.6 9.5-.6 19.1-.2 28.5 1.3 5.8 1.2 2.6 4.8.4 5.1s-.8 4.7-1.4 8.2-.5 13.5-4.7 18.2-16.1 3.5-24.9 3.3c-6.1-.1-11.1-4.6-12-10.6-.6-3.9-.9-10.2-4.9-10.4s-5 4.7-5.2 9.2-1.7 8.8-5.6 10.9-26.6 2.2-34.4-1.3c-5.5-2.4-6.8-12.1-7-17.6 0-1.4-.5-2.8-1.5-3.9-1.5 21.9 4.6 53.4 7.6 59.8 2.9 6.4 11.5 10 43.4 15.2l-26.9-1.2-13-.2c-26.7 0-15.4-48-15.4-74.4" opacity=".1" fill="#242538"/><path d="M55.3 69.2s.3-9-4.5-11S27 56.1 21 55.3c-2.8-.1-5.6-.9-8.2-2.1 0 0-3.3 9.8 3 12.8s23.6.3 27.1.7 12.5 2.5 12.4 2.5m16.9-.3c-.2-2.4.3-4.7 1.5-6.8 2-3 7.5-4.7 15.5-4.7 8.1 0 18.6 1.5 20.7.2a18.16 18.16 0 0 1 .6 4.6c-.2 1.7-1.2 4.5-2.8 5s-35.5 1.7-35.5 1.7" fill="#7c4e2e"/><path d="M113.8 74.1c-1.4.2-2.5 1.6-3 5.1-.6 3.5-.5 14.1-4.8 19.1s-16.4 3.7-25.4 3.4a12.75 12.75 0 0 1-12.2-11.1c-.6-4.1-.9-10.7-5-10.9s-5.2 4.9-5.3 9.6-1.7 9.1-5.7 11.4-27.1 2.3-35.1-1.3c-5.6-2.5-6.9-12.6-7.2-18.4.1-2-.9-3.8-2.6-4.9-2-.9-4.4-2.6-4.5-5.2-.3-7.3 28.6-7.8 38.2-6.5 12.6 1.7 16 4 18.2 5.5 2.6 1.6 5.9 1.6 8.5-.1 4.4-3.3 9.6-5.3 15-5.9 9.7-.6 19.4-.2 29 1.3 5.7 1.1 4.1 8.5 1.9 8.9m-59.5 3.6c-.4-5.8-6-7.6-18.6-7.9S17 70.8 16 74c-1.2 5.1-1 10.5.5 15.5.7 3.5 3.5 6.2 7.1 6.7 0 0 14.8 1.9 22.6.4 2.9-.1 5.5-2 6.4-4.8.9-4.6 1.4-9.4 1.7-14.1h0zm51.8-3.4c-.9-3-6.3-4.4-17.7-4.2S72 72.2 71.7 78a112.44 112.44 0 0 0 1.5 14.1c.8 2.6 3.1 4.6 5.8 4.8 7 1.5 20.4-.4 20.4-.4s4.7-.3 6.4-6.7c1.3-5.1 1.4-10.4.3-15.5" fill-rule="evenodd" fill="#7376b1"/><path d="M34 133.6c-.9-.5-1.3-1.7-.8-2.7 1.9-4.3 5.9-13.9 6.5-15.8s4.3-3.4 7.3-3.4c2.9 0 31.1-1.7 32.8-1.8h.1c1.6-.3 3.3.3 4.3 1.7 1.4 2 5.8 10.6 7.5 13.8.4.6.4 1.4 0 2.1-2.1 2.9-9.8 11.4-27.6 11s-26.4-3.5-30-5" fill="#7c4e2e"/><g fill="#e08b85"><path d="M62.4 79s7-.5 8.9 13.7c2 14.2 4.4 13.2 6.1 15s4.7 9.6-3.6 12.8-17.3-3.8-19.1-5.5c-1.4 1.2-3.3 1.8-5.1 1.7-3.8.2-8.3-6.5-6.1-10.7s9.2-3.7 10.5-8.6c1.4-4.9 2.9-18.2 8.4-18.4"/><path d="M71.4 100.2c1.9 1.5 4.1 2.7 6.5 3.3 2.3.3 4.1 2.1 4.2 4.4.2 2.1-3.4 4.7-6.8 5-3.3.4-6.3-9-3.9-12.7"/></g><path d="M73.5 102.4c1.5.9 3.1 1.7 4.7 2.3 1.7.4 2.9 2.1 2.8 3.8-.1 1.2-2 1.9-2 1.9-.8-2.1-2-4-3.4-5.6-2-1.8-2.1-2.4-2.1-2.4m1.7 4.9c-1.9-2-3.2-4.4-3.8-7.1-.6-4.7-1.7-9.4-3-14-.8-2.2-2.2-4.1-4-5.4-2.4-1.6-5.2 1-6 4s-1.6 10.2-2.8 14c-1.2 3.7-5.5 4.2-8 5.6a5.94 5.94 0 0 0-2 8h0l.6.8c1.2 1.4 3.1 2.2 4.9 2 1-.2 2-.7 2.9-1.4-.6-4 1.9-7 4.1-9.7-2 3.6-3.2 7.2-2.3 9.5s10.1 8.5 17.2 5.8 3.7-9.8 2.1-11.9" fill="#eda4a2"/><g fill="#fff"><path d="M40.8 118.5c-.1-.2-.2-.2-.4-.2 0 0-.1 0-.1.1-1.3 3-4.5 10.8-4.9 12.2s4 3 12.9 4.6c2.9.5 5.7.9 8.7 1.1.5 0 .5-.8.1-.9-5.2-1.2-15.9-2.3-17.2-5.8s.7-7.9.9-11.1m40.4-7c1.5.6 2.6 1.7 3.3 3 1.1 2.3 5.9 10.3 5.7 11.5-1.2 2.9-3.5 5.2-6.5 6.2 0 0 4.4-3.5 3.3-7.3-1-4.8-3-9.3-5.8-13.4M38.1 58.2c-.1 0-.2-.1-.2-.2l.2-.2 7.2.8c3.3.4 5.9.7 7.1 2.9.7 1.1 1 2.4 1.1 3.7 0 .1-.1.2-.2.2h-.1c-1.2-1.1-5.7-4.7-15.1-7m55 .7l9.9.3c2.1.1 4.3 0 6.4-.4-2 1.9-4.7 2.8-7.4 2.6-3-.4-6-1.2-8.8-2.4" opacity=".3"/><path d="M25.5 66.9S9.1 69.5 8.1 72c-1 2.6-4.5-.7-3.5-1.9s7.1-4.7 20.9-3.2m72.6-.2c-.3 0 10.2.3 13.1 1.7s2.5 3.5 1.9 4.2-3.6-4.5-15-5.9" opacity=".2" fill-rule="evenodd"/></g><path d="M124.9 40.8h31.3c5.1.4 8.9 4.8 8.6 9.9 0 .5-.1 1-.2 1.4l-23.1 102.7c-1.3 6.2-6.3 11.2-11.1 11.2l-30.4 2c-4.9 0-8.7-7-7.4-13.2L113.8 52c1.3-6.2 6.3-11.2 11.1-11.2" fill="#c0b9ef"/><path d="M151.9 74.3c3.3 0 6.8-3.4 7.7-7.8l2.7-12.7c.9-4.3-1.1-7.8-4.5-7.8h-8.7c-3.3 0-6.8 3.4-7.7 7.8l-2.7 12.7c-.9 4.3 1.1 7.8 4.5 7.8h8.7M126.8 43h31.3c4.9 0 7.8 5 6.5 11.2l-21.2 102.7c-1.3 6.2-6.3 11.2-11.1 11.2h-31.4c-4.9 0-7.8-5-6.5-11.2l21.2-102.7c1.3-6.3 6.3-11.2 11.2-11.2" fill="#847ca3"/><path d="M151.8 73.2c3.1 0 6.3-3.2 7.2-7.2l2.4-11.7c.8-3.9-1.1-7.2-4.1-7.2h-8.1c-3.1 0-6.3 3.2-7.2 7.2L139.5 66c-.8 3.9 1.1 7.2 4.1 7.2h8.2m-2.7-27.1h8.7c3.3 0 5.4 3.4 4.5 7.8l-2.7 12.7c-.9 4.3-4.3 7.8-7.7 7.8h-8.7c-3.3 0-5.4-3.4-4.5-7.8l2.6-12.7c.9-4.3 4.3-7.8 7.8-7.8" fill="#58546d"/><path d="M144.1 70.7c1-.2 1.7-.9 1.9-1.9.2-1.1-.3-1.9-1.1-1.9-1 .2-1.7.9-1.9 1.9-.1 1 .4 1.9 1.1 1.9m8.3 0c2.4-.4 4.3-2.2 4.6-4.6.5-2.6-.7-4.6-2.7-4.6-2.4.4-4.3 2.2-4.6 4.6-.4 2.5.7 4.6 2.7 4.6m-7.1-5.9c2.4-.4 4.3-2.2 4.6-4.6.5-2.6-.7-4.6-2.7-4.6-2.4.4-4.3 2.2-4.6 4.6-.4 2.5.8 4.6 2.7 4.6m2.4-11c1-.2 1.7-.9 1.9-1.9.2-1.1-.3-1.9-1.1-1.9-1 .2-1.7.9-1.9 1.9s.3 1.9 1.1 1.9m7.2 5.1c2.4-.4 4.3-2.2 4.6-4.6.5-2.6-.7-4.6-2.7-4.6-2.4.4-4.3 2.2-4.6 4.6-.5 2.5.7 4.6 2.7 4.6m-5.7-11.7h8.1c3.1 0 5 3.2 4.1 7.2l-2.5 11.7c-.8 3.9-4 7.2-7.2 7.2h-8.1c-3.1 0-5-3.2-4.1-7.2l2.5-11.7c.8-4 4-7.2 7.2-7.2" fill="#c1d5d6"/><path d="M156.8 49.8c2 0 3.2 2.1 2.7 4.6-.4 2.4-2.2 4.3-4.6 4.6-2 0-3.2-2.1-2.7-4.6.4-2.5 2.2-4.3 4.6-4.6m-9.5 5.8c2.1 0 3.2 2.1 2.7 4.6-.4 2.4-2.2 4.3-4.6 4.6-2 0-3.2-2.1-2.7-4.6.3-2.4 2.2-4.4 4.6-4.6" fill="#1d1e2f"/><path d="M148.5 49.9c.8 0 1.3.9 1.1 1.9s-.9 1.7-1.9 1.9c-.8 0-1.3-.9-1.1-1.9s.9-1.7 1.9-1.9" fill="#fff"/><path d="M144.9 66.9c.8 0 1.3.9 1.1 1.9s-.9 1.7-1.9 1.9c-.8 0-1.3-.9-1.1-1.9s1-1.7 1.9-1.9m9.5-5.5c2.1 0 3.2 2.1 2.7 4.6-.4 2.4-2.2 4.3-4.6 4.6-2 0-3.2-2.1-2.7-4.6.3-2.3 2.2-4.2 4.6-4.6" fill="#1d1e2f"/><path d="M139.1 132.6l1.9-1.2c-2.3-4.3-3.1-7.1-.4-12h0c-2.9-4.8-3-10.8-.3-15.7.6-4.9 26.3-7.1 27.8-4.3 1.9 3.9 1.2 8.5-1.7 11.7.2.1.4.2.6.4 2.3 4.2 1.6 9.5-1.8 13l-2.7 1.2c2.4 2.9 2.8 6.6-.6 11.9-8.8 6.1-11.4 9.1-20.4 9-5.1-.6-3.6-13.2-2.4-14" opacity=".26" fill-rule="evenodd" fill="#242538"/><path d="M168.6 108.2c3.2-3.9 3.4-7.8 1.7-11.8-1.5-2.9-27.2-.6-27.8 4.3-2.8 5.3-2.3 10.5.4 15.6 0 .1 0 .1-.1.2-2.7 4.9-1.8 7.7.4 12-.7.4-1.3.8-1.7 1.1-1.2.9-2.7 13.4 2.6 14 8.9.1 11.5-3 20.4-9 3.2-5.4 2.9-9.1.5-11.9l2.7-1.2c3.3-3.6 3.9-8.8 1.5-12.9-.1-.1-.3-.3-.6-.4z" fill="#fc0"/></svg>